<svg width="16" height="16" viewBox="0 0 16 16" fill="none" xmlns="http://www.w3.org/2000/svg">
<path d="M8 0C3.5824 0 0 3.5824 0 8C0 12.4176 3.5824 16 8 16C12.4176 16 16 12.4176 16 8C16 3.5824 12.4176 0 8 0ZM8.16956 12.6578C8.16943 12.6578 8.16968 12.6578 8.16956 12.6578H8.1676C7.36621 12.6575 6.57874 12.4565 5.87939 12.0752L3.34119 12.7408L4.02051 10.2604C3.60144 9.53455 3.38098 8.71106 3.38135 7.86743C3.38245 5.22827 5.5304 3.08118 8.16956 3.08118C9.45032 3.08167 10.6526 3.5802 11.5565 4.48486C12.4606 5.38965 12.9581 6.59229 12.9576 7.87122C12.9565 10.5105 10.8083 12.6578 8.16956 12.6578Z" fill="#272D4E"/>
<path d="M8.17115 3.88965C5.97595 3.88965 4.19067 5.67419 4.1897 7.8678C4.18945 8.61951 4.3999 9.35156 4.79822 9.98499L4.89282 10.1355L4.49072 11.6036L5.99695 11.2086L6.14234 11.2948C6.7533 11.6573 7.45374 11.8491 8.16785 11.8494H8.16944C10.3629 11.8494 12.1482 10.0647 12.1492 7.87097C12.1495 6.80786 11.736 5.80835 10.9846 5.0564C10.2333 4.30444 9.23402 3.89001 8.17115 3.88965ZM10.512 9.57825C10.4122 9.85754 9.93433 10.1125 9.70447 10.147C9.4983 10.1777 9.23756 10.1906 8.95093 10.0996C8.77711 10.0444 8.55433 9.97083 8.2688 9.84766C7.06873 9.32959 6.28492 8.12158 6.2251 8.04175C6.16529 7.96191 5.73657 7.39319 5.73657 6.80444C5.73657 6.21582 6.04566 5.92639 6.15528 5.80676C6.26502 5.68701 6.39466 5.6571 6.47437 5.6571C6.55408 5.6571 6.63391 5.65784 6.70362 5.66125C6.7771 5.66492 6.87574 5.6333 6.97278 5.86658C7.07251 6.10608 7.31177 6.6947 7.34168 6.75452C7.37159 6.81445 7.39148 6.88428 7.35169 6.96411C7.31177 7.04395 7.1792 7.21619 7.05262 7.37317C6.99952 7.43896 6.9303 7.49756 7.00013 7.61731C7.06983 7.73694 7.31006 8.12866 7.66565 8.4458C8.12269 8.85327 8.50818 8.97949 8.62781 9.03943C8.74732 9.09924 8.81714 9.08923 8.88697 9.00952C8.95667 8.92969 9.18604 8.66028 9.26575 8.54053C9.34547 8.42078 9.4253 8.4408 9.53492 8.48071C9.64466 8.52051 10.2328 8.80994 10.3524 8.86975C10.4721 8.92969 10.5518 8.95959 10.5817 9.00952C10.6117 9.05945 10.6117 9.29883 10.512 9.57825Z" fill="#272D4E"/>
</svg>
