<svg width="652" height="866" viewBox="0 0 652 866" fill="none" xmlns="http://www.w3.org/2000/svg">
<path d="M619.752 854.409C608.59 865.127 594.385 867.553 577.002 862.427C545.291 853.352 530.866 828.805 533.727 788.787C543.475 627.269 546.996 488.655 544.904 373.179L353.85 629.217C336.414 652.538 318.393 661.4 299.788 655.802C272.491 647.64 259.837 620.614 261.215 574.487C264.196 470.46 260.155 379.538 250.114 299.745C199.361 481.025 147.356 605.674 93.962 674.43C80.9532 691.552 65.5892 696.694 47.5951 691.332C33.2672 687.384 21.3966 677.267 11.8463 661.719C2.296 646.171 -1.20615 629.795 0.728975 612.353C2.58881 598.836 6.48087 588.476 13.428 579.294C47.141 535.367 83.3031 453.634 122.25 335.808C159.901 221.436 182.833 129.853 191.658 61.2947C193.868 42.3771 199.332 27.0879 208.05 15.427C218.402 2.02421 231.047 -2.58542 245.375 1.36243C261.536 6.0176 276.387 21.2385 288.567 47.291C332.351 139.315 358.074 261.538 365.126 413.722C422.412 334.606 464.919 275.093 492.645 235.181C544.207 165.718 582.719 134.713 608.794 142.404C625.566 147.295 636.462 169.688 642.093 209.821C655.273 318.503 654.15 518.145 638.725 808.747C636.989 828.638 630.777 844.429 619.752 854.409Z" fill="#E6F0F8"/>
</svg>
