<svg width="461" height="473" viewBox="0 0 461 473" fill="none" xmlns="http://www.w3.org/2000/svg">
<path opacity="0.05" d="M442.53 464.377C434.741 471.435 424.7 473.942 412.319 472.333C389.736 469.56 379.229 456.505 380.798 433.171C385.855 339.13 386.762 258.8 383.955 192.272L251.46 355.008C239.367 369.834 226.694 376.354 213.442 374.569C193.999 371.979 184.719 357.355 185.166 330.608C186.087 270.296 182.179 218.1 174.147 172.798C140.249 281.443 104.814 357.478 67.7529 401.342C58.7278 412.243 47.8958 416.408 35.0789 414.711C24.8771 413.546 16.3465 408.627 9.39832 400.39C2.45016 392.154 -0.220207 382.968 0.951535 372.744C2.11487 364.793 4.75502 358.507 9.57433 352.664C32.9685 324.67 57.6652 274.653 83.9225 203.574C109.3 134.59 124.505 79.913 129.975 39.6315C131.324 28.534 135.022 19.2787 141.069 11.8658C148.253 3.31972 157.164 -0.326427 167.366 0.838767C178.875 2.2699 189.577 9.90507 198.51 24.0037C230.602 73.7445 250.238 142.331 256.982 229.675C296.683 179.525 326.131 141.846 345.328 116.639C381.082 72.5091 408.026 51.6064 426.598 54.019C438.543 55.5388 446.524 67.6242 450.976 90.3639C461.565 152.107 463.058 267.495 455.456 436.529C454.454 448.152 450.231 457.755 442.53 464.377Z" fill="white"/>
</svg>
