<svg width="16" height="16" viewBox="0 0 16 16" fill="none" xmlns="http://www.w3.org/2000/svg">
<path d="M9.53125 8C9.53125 8.8457 8.8457 9.53125 8 9.53125C7.1543 9.53125 6.46875 8.8457 6.46875 8C6.46875 7.1543 7.1543 6.46875 8 6.46875C8.8457 6.46875 9.53125 7.1543 9.53125 8Z" fill="#272D4E"/>
<path d="M11.5811 5.29089C11.5074 5.09143 11.39 4.91089 11.2374 4.7627C11.0892 4.61011 10.9088 4.49268 10.7092 4.41907C10.5474 4.3562 10.3042 4.28137 9.85632 4.26099C9.37183 4.23889 9.22656 4.23413 8 4.23413C6.77332 4.23413 6.62805 4.23877 6.14368 4.26086C5.6958 4.28137 5.45251 4.3562 5.29077 4.41907C5.09119 4.49268 4.91064 4.61011 4.76257 4.7627C4.60999 4.91089 4.49255 5.09131 4.41882 5.29089C4.35596 5.45276 4.28113 5.69604 4.26074 6.14392C4.23865 6.6283 4.23389 6.77356 4.23389 8.00024C4.23389 9.22681 4.23865 9.37207 4.26074 9.85657C4.28113 10.3044 4.35596 10.5476 4.41882 10.7095C4.49255 10.9091 4.60986 11.0895 4.76245 11.2377C4.91064 11.3903 5.09106 11.5077 5.29065 11.5813C5.45251 11.6443 5.6958 11.7191 6.14368 11.7395C6.62805 11.7616 6.77319 11.7662 7.99988 11.7662C9.22668 11.7662 9.37195 11.7616 9.8562 11.7395C10.3041 11.7191 10.5474 11.6443 10.7092 11.5813C11.1099 11.4268 11.4265 11.1101 11.5811 10.7095C11.6439 10.5476 11.7188 10.3044 11.7393 9.85657C11.7614 9.37207 11.766 9.22681 11.766 8.00024C11.766 6.77356 11.7614 6.6283 11.7393 6.14392C11.7189 5.69604 11.644 5.45276 11.5811 5.29089ZM8 10.359C6.69714 10.359 5.64099 9.30298 5.64099 8.00012C5.64099 6.69727 6.69714 5.64124 8 5.64124C9.30273 5.64124 10.3589 6.69727 10.3589 8.00012C10.3589 9.30298 9.30273 10.359 8 10.359ZM10.4521 6.09924C10.1477 6.09924 9.90088 5.85242 9.90088 5.54797C9.90088 5.24353 10.1477 4.9967 10.4521 4.9967C10.7566 4.9967 11.0034 5.24353 11.0034 5.54797C11.0033 5.85242 10.7566 6.09924 10.4521 6.09924Z" fill="#272D4E"/>
<path d="M8 0C3.5824 0 0 3.5824 0 8C0 12.4176 3.5824 16 8 16C12.4176 16 16 12.4176 16 8C16 3.5824 12.4176 0 8 0ZM12.566 9.89392C12.5438 10.3829 12.4661 10.7168 12.3525 11.009C12.1139 11.6261 11.6261 12.1139 11.009 12.3525C10.7169 12.4661 10.3829 12.5437 9.89404 12.566C9.40417 12.5884 9.24768 12.5938 8.00012 12.5938C6.75244 12.5938 6.59607 12.5884 6.10608 12.566C5.61719 12.5437 5.2832 12.4661 4.99109 12.3525C4.68445 12.2372 4.40686 12.0564 4.17737 11.8226C3.94373 11.5933 3.76294 11.3156 3.64758 11.009C3.53406 10.7169 3.4563 10.3829 3.43408 9.89404C3.4115 9.40405 3.40625 9.24756 3.40625 8C3.40625 6.75244 3.4115 6.59595 3.43396 6.10608C3.45618 5.61707 3.53381 5.2832 3.64734 4.99097C3.7627 4.68445 3.9436 4.40674 4.17737 4.17737C4.40674 3.9436 4.68445 3.76282 4.99097 3.64746C5.2832 3.53394 5.61707 3.4563 6.10608 3.43396C6.59595 3.41162 6.75244 3.40625 8 3.40625C9.24756 3.40625 9.40405 3.41162 9.89392 3.43408C10.3829 3.4563 10.7168 3.53394 11.009 3.64734C11.3156 3.7627 11.5933 3.9436 11.8228 4.17737C12.0564 4.40686 12.2373 4.68445 12.3525 4.99097C12.4662 5.2832 12.5438 5.61707 12.5662 6.10608C12.5885 6.59595 12.5938 6.75244 12.5938 8C12.5938 9.24756 12.5885 9.40405 12.566 9.89392Z" fill="#272D4E"/>
</svg>
