<svg width="144" height="104" viewBox="0 0 144 104" fill="none" xmlns="http://www.w3.org/2000/svg">
<path opacity="0.2" d="M1.87565 96.9682C7.91712 90.6486 12.664 84.7599 16.1163 79.302C19.5685 73.8442 21.2946 69.3917 21.2946 65.9447C21.2946 63.9339 20.5754 62.0667 19.137 60.3432C17.9862 58.6197 16.1163 56.7525 13.5271 54.7417C9.49941 51.582 6.33483 48.2785 4.03332 44.8315C1.73181 41.3844 0.581055 36.7883 0.581055 31.0432C0.581055 22.1383 3.31408 14.957 8.78017 9.49911C14.2463 3.75402 21.1508 0.88147 29.4938 0.88147C38.4121 0.88147 45.6044 3.75402 51.0704 9.49911C56.8242 14.957 59.7011 22.1383 59.7011 31.0432C59.7011 42.2462 54.9542 54.5981 45.4605 68.0991C36.2545 81.3128 23.8838 93.0903 8.34864 103.431L1.87565 96.9682ZM85.5931 96.9682C91.6346 90.6486 96.3814 84.7599 99.8337 79.302C103.286 73.8442 105.012 69.3917 105.012 65.9447C105.012 63.9339 104.293 62.0667 102.854 60.3432C101.704 58.6197 99.8337 56.7525 97.2445 54.7417C93.2169 51.582 90.0523 48.2785 87.7508 44.8315C85.4492 41.3844 84.2985 36.7883 84.2985 31.0432C84.2985 22.1383 87.0315 14.957 92.4976 9.49911C97.9637 3.75402 104.868 0.88147 113.211 0.88147C122.13 0.88147 129.322 3.75402 134.788 9.49911C140.542 14.957 143.419 22.1383 143.419 31.0432C143.419 42.2462 138.672 54.5981 129.178 68.0991C119.972 81.3128 107.601 93.0903 92.0661 103.431L85.5931 96.9682Z" fill="#2B80C1"/>
</svg>
