<svg width="135" height="296" viewBox="0 0 135 296" fill="none" xmlns="http://www.w3.org/2000/svg">
<circle cx="2.96316" cy="2.20821" r="2.20842" fill="#2B80C1"/>
<circle cx="35.3527" cy="2.2083" r="2.20842" fill="#2B80C1"/>
<circle cx="67.743" cy="2.2083" r="2.20842" fill="#2B80C1"/>
<circle cx="100.133" cy="2.2083" r="2.20842" fill="#2B80C1"/>
<circle cx="132.524" cy="2.2083" r="2.20842" fill="#2B80C1"/>
<circle cx="2.96245" cy="34.5986" r="2.20842" fill="#2B80C1"/>
<circle cx="35.3527" cy="34.5986" r="2.20842" fill="#2B80C1"/>
<circle cx="67.743" cy="34.5986" r="2.20842" fill="#2B80C1"/>
<circle cx="100.133" cy="34.5986" r="2.20842" fill="#2B80C1"/>
<circle cx="132.524" cy="34.5986" r="2.20842" fill="#2B80C1"/>
<circle cx="2.96245" cy="66.9889" r="2.20842" fill="#2B80C1"/>
<circle cx="35.3527" cy="66.9889" r="2.20842" fill="#2B80C1"/>
<circle cx="67.743" cy="66.9889" r="2.20842" fill="#2B80C1"/>
<circle cx="100.133" cy="66.9889" r="2.20842" fill="#2B80C1"/>
<circle cx="132.524" cy="66.9889" r="2.20842" fill="#2B80C1"/>
<circle cx="2.96245" cy="99.3791" r="2.20842" fill="#2B80C1"/>
<circle cx="35.3527" cy="99.3791" r="2.20842" fill="#2B80C1"/>
<circle cx="67.743" cy="99.3791" r="2.20842" fill="#2B80C1"/>
<circle cx="100.133" cy="99.3791" r="2.20842" fill="#2B80C1"/>
<circle cx="132.524" cy="99.3791" r="2.20842" fill="#2B80C1"/>
<circle cx="2.96245" cy="131.769" r="2.20842" fill="#2B80C1"/>
<circle cx="35.3527" cy="131.769" r="2.20842" fill="#2B80C1"/>
<circle cx="67.743" cy="131.769" r="2.20842" fill="#2B80C1"/>
<circle cx="100.133" cy="131.769" r="2.20842" fill="#2B80C1"/>
<circle cx="132.524" cy="131.769" r="2.20842" fill="#2B80C1"/>
<circle cx="2.96245" cy="164.159" r="2.20842" fill="#2B80C1"/>
<circle cx="35.3527" cy="164.159" r="2.20842" fill="#2B80C1"/>
<circle cx="67.743" cy="164.159" r="2.20842" fill="#2B80C1"/>
<circle cx="100.133" cy="164.159" r="2.20842" fill="#2B80C1"/>
<circle cx="132.524" cy="164.159" r="2.20842" fill="#2B80C1"/>
<circle cx="2.96245" cy="196.55" r="2.20842" fill="#2B80C1"/>
<circle cx="35.3527" cy="196.55" r="2.20842" fill="#2B80C1"/>
<circle cx="67.743" cy="196.55" r="2.20842" fill="#2B80C1"/>
<circle cx="100.133" cy="196.55" r="2.20842" fill="#2B80C1"/>
<circle cx="132.524" cy="196.55" r="2.20842" fill="#2B80C1"/>
<circle cx="2.96245" cy="228.94" r="2.20842" fill="#2B80C1"/>
<circle cx="35.3527" cy="228.94" r="2.20842" fill="#2B80C1"/>
<circle cx="67.743" cy="228.94" r="2.20842" fill="#2B80C1"/>
<circle cx="100.133" cy="228.94" r="2.20842" fill="#2B80C1"/>
<circle cx="132.524" cy="228.94" r="2.20842" fill="#2B80C1"/>
<circle cx="2.96245" cy="261.33" r="2.20842" fill="#2B80C1"/>
<circle cx="35.3527" cy="261.33" r="2.20842" fill="#2B80C1"/>
<circle cx="67.743" cy="261.33" r="2.20842" fill="#2B80C1"/>
<circle cx="100.133" cy="261.33" r="2.20842" fill="#2B80C1"/>
<circle cx="132.524" cy="261.33" r="2.20842" fill="#2B80C1"/>
<circle cx="2.96245" cy="293.72" r="2.20842" fill="#2B80C1"/>
<circle cx="35.3527" cy="293.72" r="2.20842" fill="#2B80C1"/>
<circle cx="67.743" cy="293.72" r="2.20842" fill="#2B80C1"/>
<circle cx="100.133" cy="293.72" r="2.20842" fill="#2B80C1"/>
<circle cx="132.524" cy="293.72" r="2.20842" fill="#2B80C1"/>
</svg>
