<svg width="459" height="444" viewBox="0 0 459 444" fill="none" xmlns="http://www.w3.org/2000/svg">
<circle cx="327.231" cy="150.123" r="2.20842" fill="#E8E029"/>
<circle cx="359.621" cy="150.123" r="2.20842" fill="#E8E029"/>
<circle cx="392.011" cy="150.123" r="2.20842" fill="#E8E029"/>
<circle cx="424.401" cy="150.123" r="2.20842" fill="#E8E029"/>
<circle cx="456.792" cy="150.123" r="2.20842" fill="#E8E029"/>
<circle cx="327.23" cy="182.513" r="2.20842" fill="#E8E029"/>
<circle cx="359.621" cy="182.513" r="2.20842" fill="#E8E029"/>
<circle cx="392.011" cy="182.513" r="2.20842" fill="#E8E029"/>
<circle cx="424.401" cy="182.513" r="2.20842" fill="#E8E029"/>
<circle cx="456.792" cy="182.513" r="2.20842" fill="#E8E029"/>
<circle cx="327.23" cy="214.903" r="2.20842" fill="#E8E029"/>
<circle cx="359.621" cy="214.903" r="2.20842" fill="#E8E029"/>
<circle cx="392.011" cy="214.903" r="2.20842" fill="#E8E029"/>
<circle cx="424.401" cy="214.903" r="2.20842" fill="#E8E029"/>
<circle cx="456.792" cy="214.903" r="2.20842" fill="#E8E029"/>
<circle cx="327.23" cy="247.293" r="2.20842" fill="#E8E029"/>
<circle cx="359.621" cy="247.293" r="2.20842" fill="#E8E029"/>
<circle cx="392.011" cy="247.293" r="2.20842" fill="#E8E029"/>
<circle cx="424.401" cy="247.293" r="2.20842" fill="#E8E029"/>
<circle cx="456.792" cy="247.293" r="2.20842" fill="#E8E029"/>
<circle cx="327.23" cy="279.684" r="2.20842" fill="#E8E029"/>
<circle cx="359.621" cy="279.684" r="2.20842" fill="#E8E029"/>
<circle cx="392.011" cy="279.684" r="2.20842" fill="#E8E029"/>
<circle cx="424.401" cy="279.684" r="2.20842" fill="#E8E029"/>
<circle cx="456.792" cy="279.684" r="2.20842" fill="#E8E029"/>
<circle cx="327.23" cy="312.074" r="2.20842" fill="#E8E029"/>
<circle cx="359.621" cy="312.074" r="2.20842" fill="#E8E029"/>
<circle cx="392.011" cy="312.074" r="2.20842" fill="#E8E029"/>
<circle cx="424.401" cy="312.074" r="2.20842" fill="#E8E029"/>
<circle cx="456.792" cy="312.074" r="2.20842" fill="#E8E029"/>
<circle cx="327.23" cy="344.464" r="2.20842" fill="#E8E029"/>
<circle cx="359.621" cy="344.464" r="2.20842" fill="#E8E029"/>
<circle cx="392.011" cy="344.464" r="2.20842" fill="#E8E029"/>
<circle cx="424.401" cy="344.464" r="2.20842" fill="#E8E029"/>
<circle cx="456.792" cy="344.464" r="2.20842" fill="#E8E029"/>
<circle cx="327.23" cy="376.854" r="2.20842" fill="#E8E029"/>
<circle cx="359.621" cy="376.854" r="2.20842" fill="#E8E029"/>
<circle cx="392.011" cy="376.854" r="2.20842" fill="#E8E029"/>
<circle cx="424.401" cy="376.854" r="2.20842" fill="#E8E029"/>
<circle cx="456.792" cy="376.854" r="2.20842" fill="#E8E029"/>
<circle cx="327.23" cy="409.244" r="2.20842" fill="#E8E029"/>
<circle cx="359.621" cy="409.244" r="2.20842" fill="#E8E029"/>
<circle cx="392.011" cy="409.244" r="2.20842" fill="#E8E029"/>
<circle cx="424.401" cy="409.244" r="2.20842" fill="#E8E029"/>
<circle cx="456.792" cy="409.244" r="2.20842" fill="#E8E029"/>
<circle cx="327.23" cy="441.635" r="2.20842" fill="#E8E029"/>
<circle cx="359.621" cy="441.635" r="2.20842" fill="#E8E029"/>
<circle cx="392.011" cy="441.635" r="2.20842" fill="#E8E029"/>
<circle cx="424.401" cy="441.635" r="2.20842" fill="#E8E029"/>
<circle cx="456.792" cy="441.635" r="2.20842" fill="#E8E029"/>
<circle cx="294.709" cy="90.5809" r="2.20842" transform="rotate(90 294.709 90.5809)" fill="#2B80C1"/>
<circle cx="294.709" cy="122.971" r="2.20842" transform="rotate(90 294.709 122.971)" fill="#2B80C1"/>
<circle cx="294.709" cy="155.361" r="2.20842" transform="rotate(90 294.709 155.361)" fill="#2B80C1"/>
<circle cx="294.709" cy="187.751" r="2.20842" transform="rotate(90 294.709 187.751)" fill="#2B80C1"/>
<circle cx="294.709" cy="220.142" r="2.20842" transform="rotate(90 294.709 220.142)" fill="#2B80C1"/>
<circle cx="262.318" cy="90.5809" r="2.20842" transform="rotate(90 262.318 90.5809)" fill="#2B80C1"/>
<circle cx="262.318" cy="122.971" r="2.20842" transform="rotate(90 262.318 122.971)" fill="#2B80C1"/>
<circle cx="262.318" cy="155.361" r="2.20842" transform="rotate(90 262.318 155.361)" fill="#2B80C1"/>
<circle cx="262.318" cy="187.751" r="2.20842" transform="rotate(90 262.318 187.751)" fill="#2B80C1"/>
<circle cx="262.318" cy="220.142" r="2.20842" transform="rotate(90 262.318 220.142)" fill="#2B80C1"/>
<circle cx="229.928" cy="90.5809" r="2.20842" transform="rotate(90 229.928 90.5809)" fill="#2B80C1"/>
<circle cx="229.928" cy="122.971" r="2.20842" transform="rotate(90 229.928 122.971)" fill="#2B80C1"/>
<circle cx="229.928" cy="155.361" r="2.20842" transform="rotate(90 229.928 155.361)" fill="#2B80C1"/>
<circle cx="229.928" cy="187.751" r="2.20842" transform="rotate(90 229.928 187.751)" fill="#2B80C1"/>
<circle cx="229.928" cy="220.142" r="2.20842" transform="rotate(90 229.928 220.142)" fill="#2B80C1"/>
<circle cx="197.538" cy="90.5809" r="2.20842" transform="rotate(90 197.538 90.5809)" fill="#2B80C1"/>
<circle cx="197.538" cy="122.971" r="2.20842" transform="rotate(90 197.538 122.971)" fill="#2B80C1"/>
<circle cx="197.538" cy="155.361" r="2.20842" transform="rotate(90 197.538 155.361)" fill="#2B80C1"/>
<circle cx="197.538" cy="187.751" r="2.20842" transform="rotate(90 197.538 187.751)" fill="#2B80C1"/>
<circle cx="197.538" cy="220.142" r="2.20842" transform="rotate(90 197.538 220.142)" fill="#2B80C1"/>
<circle cx="165.148" cy="90.5809" r="2.20842" transform="rotate(90 165.148 90.5809)" fill="#2B80C1"/>
<circle cx="165.148" cy="122.971" r="2.20842" transform="rotate(90 165.148 122.971)" fill="#2B80C1"/>
<circle cx="165.148" cy="155.361" r="2.20842" transform="rotate(90 165.148 155.361)" fill="#2B80C1"/>
<circle cx="165.148" cy="187.751" r="2.20842" transform="rotate(90 165.148 187.751)" fill="#2B80C1"/>
<circle cx="165.148" cy="220.142" r="2.20842" transform="rotate(90 165.148 220.142)" fill="#2B80C1"/>
<circle cx="132.757" cy="90.5809" r="2.20842" transform="rotate(90 132.757 90.5809)" fill="#2B80C1"/>
<circle cx="132.757" cy="122.971" r="2.20842" transform="rotate(90 132.757 122.971)" fill="#2B80C1"/>
<circle cx="132.757" cy="155.361" r="2.20842" transform="rotate(90 132.757 155.361)" fill="#2B80C1"/>
<circle cx="132.757" cy="187.751" r="2.20842" transform="rotate(90 132.757 187.751)" fill="#2B80C1"/>
<circle cx="132.757" cy="220.142" r="2.20842" transform="rotate(90 132.757 220.142)" fill="#2B80C1"/>
<circle cx="100.367" cy="90.5809" r="2.20842" transform="rotate(90 100.367 90.5809)" fill="#2B80C1"/>
<circle cx="100.367" cy="122.971" r="2.20842" transform="rotate(90 100.367 122.971)" fill="#2B80C1"/>
<circle cx="100.367" cy="155.361" r="2.20842" transform="rotate(90 100.367 155.361)" fill="#2B80C1"/>
<circle cx="100.367" cy="187.751" r="2.20842" transform="rotate(90 100.367 187.751)" fill="#2B80C1"/>
<circle cx="100.367" cy="220.142" r="2.20842" transform="rotate(90 100.367 220.142)" fill="#2B80C1"/>
<circle cx="67.9767" cy="90.5809" r="2.20842" transform="rotate(90 67.9767 90.5809)" fill="#2B80C1"/>
<circle cx="67.9767" cy="122.971" r="2.20842" transform="rotate(90 67.9767 122.971)" fill="#2B80C1"/>
<circle cx="67.9767" cy="155.361" r="2.20842" transform="rotate(90 67.9767 155.361)" fill="#2B80C1"/>
<circle cx="67.9767" cy="187.751" r="2.20842" transform="rotate(90 67.9767 187.751)" fill="#2B80C1"/>
<circle cx="67.9767" cy="220.142" r="2.20842" transform="rotate(90 67.9767 220.142)" fill="#2B80C1"/>
<circle cx="35.5864" cy="90.5809" r="2.20842" transform="rotate(90 35.5864 90.5809)" fill="#2B80C1"/>
<circle cx="35.5864" cy="122.971" r="2.20842" transform="rotate(90 35.5864 122.971)" fill="#2B80C1"/>
<circle cx="35.5864" cy="155.361" r="2.20842" transform="rotate(90 35.5864 155.361)" fill="#2B80C1"/>
<circle cx="35.5864" cy="187.751" r="2.20842" transform="rotate(90 35.5864 187.751)" fill="#2B80C1"/>
<circle cx="35.5864" cy="220.142" r="2.20842" transform="rotate(90 35.5864 220.142)" fill="#2B80C1"/>
<circle cx="3.19618" cy="90.5809" r="2.20842" transform="rotate(90 3.19618 90.5809)" fill="#2B80C1"/>
<circle cx="3.19612" cy="122.971" r="2.20842" transform="rotate(90 3.19612 122.971)" fill="#2B80C1"/>
<circle cx="3.19612" cy="155.361" r="2.20842" transform="rotate(90 3.19612 155.361)" fill="#2B80C1"/>
<circle cx="3.19612" cy="187.751" r="2.20842" transform="rotate(90 3.19612 187.751)" fill="#2B80C1"/>
<circle cx="3.19612" cy="220.142" r="2.20842" transform="rotate(90 3.19612 220.142)" fill="#2B80C1"/>
<circle cx="231.963" cy="2.20821" r="2.20842" fill="#2B80C1"/>
<circle cx="264.353" cy="2.2083" r="2.20842" fill="#2B80C1"/>
<circle cx="296.743" cy="2.2083" r="2.20842" fill="#2B80C1"/>
<circle cx="329.133" cy="2.2083" r="2.20842" fill="#2B80C1"/>
<circle cx="361.523" cy="2.2083" r="2.20842" fill="#2B80C1"/>
<circle cx="231.962" cy="34.5986" r="2.20842" fill="#2B80C1"/>
<circle cx="264.353" cy="34.5986" r="2.20842" fill="#2B80C1"/>
<circle cx="296.743" cy="34.5986" r="2.20842" fill="#2B80C1"/>
<circle cx="329.133" cy="34.5986" r="2.20842" fill="#2B80C1"/>
<circle cx="361.523" cy="34.5986" r="2.20842" fill="#2B80C1"/>
<circle cx="231.962" cy="66.9889" r="2.20842" fill="#2B80C1"/>
<circle cx="264.353" cy="66.9889" r="2.20842" fill="#2B80C1"/>
<circle cx="296.743" cy="66.9889" r="2.20842" fill="#2B80C1"/>
<circle cx="329.133" cy="66.9889" r="2.20842" fill="#2B80C1"/>
<circle cx="361.523" cy="66.9889" r="2.20842" fill="#2B80C1"/>
<circle cx="231.962" cy="99.3791" r="2.20842" fill="#2B80C1"/>
<circle cx="264.353" cy="99.3791" r="2.20842" fill="#2B80C1"/>
<circle cx="296.743" cy="99.3791" r="2.20842" fill="#2B80C1"/>
<circle cx="329.133" cy="99.3791" r="2.20842" fill="#2B80C1"/>
<circle cx="361.523" cy="99.3791" r="2.20842" fill="#2B80C1"/>
<circle cx="231.962" cy="131.769" r="2.20842" fill="#2B80C1"/>
<circle cx="264.353" cy="131.769" r="2.20842" fill="#2B80C1"/>
<circle cx="296.743" cy="131.769" r="2.20842" fill="#2B80C1"/>
<circle cx="329.133" cy="131.769" r="2.20842" fill="#2B80C1"/>
<circle cx="361.523" cy="131.769" r="2.20842" fill="#2B80C1"/>
<circle cx="231.962" cy="164.159" r="2.20842" fill="#2B80C1"/>
<circle cx="264.353" cy="164.159" r="2.20842" fill="#2B80C1"/>
<circle cx="296.743" cy="164.159" r="2.20842" fill="#2B80C1"/>
<circle cx="329.133" cy="164.159" r="2.20842" fill="#2B80C1"/>
<circle cx="361.523" cy="164.159" r="2.20842" fill="#2B80C1"/>
<circle cx="231.962" cy="196.55" r="2.20842" fill="#2B80C1"/>
<circle cx="264.353" cy="196.55" r="2.20842" fill="#2B80C1"/>
<circle cx="296.743" cy="196.55" r="2.20842" fill="#2B80C1"/>
<circle cx="329.133" cy="196.55" r="2.20842" fill="#2B80C1"/>
<circle cx="361.523" cy="196.55" r="2.20842" fill="#2B80C1"/>
<circle cx="231.962" cy="228.94" r="2.20842" fill="#2B80C1"/>
<circle cx="264.353" cy="228.94" r="2.20842" fill="#2B80C1"/>
<circle cx="296.743" cy="228.94" r="2.20842" fill="#2B80C1"/>
<circle cx="329.133" cy="228.94" r="2.20842" fill="#2B80C1"/>
<circle cx="361.523" cy="228.94" r="2.20842" fill="#2B80C1"/>
<circle cx="231.962" cy="261.33" r="2.20842" fill="#2B80C1"/>
<circle cx="264.353" cy="261.33" r="2.20842" fill="#2B80C1"/>
<circle cx="296.743" cy="261.33" r="2.20842" fill="#2B80C1"/>
<circle cx="329.133" cy="261.33" r="2.20842" fill="#2B80C1"/>
<circle cx="361.523" cy="261.33" r="2.20842" fill="#2B80C1"/>
<circle cx="231.962" cy="293.72" r="2.20842" fill="#2B80C1"/>
<circle cx="264.353" cy="293.72" r="2.20842" fill="#2B80C1"/>
<circle cx="296.743" cy="293.72" r="2.20842" fill="#2B80C1"/>
<circle cx="329.133" cy="293.72" r="2.20842" fill="#2B80C1"/>
<circle cx="361.523" cy="293.72" r="2.20842" fill="#2B80C1"/>
</svg>
