<svg width="54" height="38" viewBox="0 0 54 38" fill="none" xmlns="http://www.w3.org/2000/svg">
<rect x="0.601746" y="0.441467" width="52.528" height="36.6474" rx="18.3237" fill="#2B80C1"/>
<path d="M26.4937 27.8931C26.787 28.036 27.155 28.0351 27.4482 27.8922C35.4396 23.9748 36.0071 16.3213 36.0001 14.1451C35.9994 13.9701 35.9427 13.7992 35.8371 13.6533C35.7316 13.5073 35.5816 13.3926 35.4057 13.3232L27.3764 10.0775C27.2486 10.0261 27.1105 9.99966 26.9709 9.99982C26.8312 9.99997 26.6932 10.0268 26.5655 10.0784L18.5921 13.3241C18.4188 13.3935 18.271 13.507 18.1663 13.6509C18.0616 13.7948 18.0045 13.9632 18.0017 14.136C17.9678 16.3012 18.4455 23.9712 26.4937 27.8931ZM23.687 17.4617L25.9741 19.5487L30.256 15.6414L31.6663 16.9283L25.9741 22.1227L22.2766 18.7487L23.687 17.4617Z" fill="white"/>
</svg>
