<svg width="134" height="297" viewBox="0 0 134 297" fill="none" xmlns="http://www.w3.org/2000/svg">
<circle cx="2.23122" cy="3.12307" r="2.20842" fill="#E8E029"/>
<circle cx="34.6207" cy="3.12261" r="2.20842" fill="#E8E029"/>
<circle cx="67.011" cy="3.12261" r="2.20842" fill="#E8E029"/>
<circle cx="99.4013" cy="3.12261" r="2.20842" fill="#E8E029"/>
<circle cx="131.792" cy="3.12261" r="2.20842" fill="#E8E029"/>
<circle cx="2.23046" cy="35.5129" r="2.20842" fill="#E8E029"/>
<circle cx="34.6207" cy="35.5129" r="2.20842" fill="#E8E029"/>
<circle cx="67.011" cy="35.5129" r="2.20842" fill="#E8E029"/>
<circle cx="99.4013" cy="35.5129" r="2.20842" fill="#E8E029"/>
<circle cx="131.792" cy="35.5129" r="2.20842" fill="#E8E029"/>
<circle cx="2.23046" cy="67.903" r="2.20842" fill="#E8E029"/>
<circle cx="34.6207" cy="67.903" r="2.20842" fill="#E8E029"/>
<circle cx="67.011" cy="67.903" r="2.20842" fill="#E8E029"/>
<circle cx="99.4013" cy="67.903" r="2.20842" fill="#E8E029"/>
<circle cx="131.792" cy="67.903" r="2.20842" fill="#E8E029"/>
<circle cx="2.23046" cy="100.293" r="2.20842" fill="#E8E029"/>
<circle cx="34.6207" cy="100.293" r="2.20842" fill="#E8E029"/>
<circle cx="67.011" cy="100.293" r="2.20842" fill="#E8E029"/>
<circle cx="99.4013" cy="100.293" r="2.20842" fill="#E8E029"/>
<circle cx="131.792" cy="100.293" r="2.20842" fill="#E8E029"/>
<circle cx="2.23046" cy="132.684" r="2.20842" fill="#E8E029"/>
<circle cx="34.6207" cy="132.684" r="2.20842" fill="#E8E029"/>
<circle cx="67.011" cy="132.684" r="2.20842" fill="#E8E029"/>
<circle cx="99.4013" cy="132.684" r="2.20842" fill="#E8E029"/>
<circle cx="131.792" cy="132.684" r="2.20842" fill="#E8E029"/>
<circle cx="2.23046" cy="165.074" r="2.20842" fill="#E8E029"/>
<circle cx="34.6207" cy="165.074" r="2.20842" fill="#E8E029"/>
<circle cx="67.011" cy="165.074" r="2.20842" fill="#E8E029"/>
<circle cx="99.4013" cy="165.074" r="2.20842" fill="#E8E029"/>
<circle cx="131.792" cy="165.074" r="2.20842" fill="#E8E029"/>
<circle cx="2.23046" cy="197.464" r="2.20842" fill="#E8E029"/>
<circle cx="34.6207" cy="197.464" r="2.20842" fill="#E8E029"/>
<circle cx="67.011" cy="197.464" r="2.20842" fill="#E8E029"/>
<circle cx="99.4013" cy="197.464" r="2.20842" fill="#E8E029"/>
<circle cx="131.792" cy="197.464" r="2.20842" fill="#E8E029"/>
<circle cx="2.23046" cy="229.854" r="2.20842" fill="#E8E029"/>
<circle cx="34.6207" cy="229.854" r="2.20842" fill="#E8E029"/>
<circle cx="67.011" cy="229.854" r="2.20842" fill="#E8E029"/>
<circle cx="99.4013" cy="229.854" r="2.20842" fill="#E8E029"/>
<circle cx="131.792" cy="229.854" r="2.20842" fill="#E8E029"/>
<circle cx="2.23046" cy="262.244" r="2.20842" fill="#E8E029"/>
<circle cx="34.6207" cy="262.244" r="2.20842" fill="#E8E029"/>
<circle cx="67.011" cy="262.244" r="2.20842" fill="#E8E029"/>
<circle cx="99.4013" cy="262.244" r="2.20842" fill="#E8E029"/>
<circle cx="131.792" cy="262.244" r="2.20842" fill="#E8E029"/>
<circle cx="2.23046" cy="294.635" r="2.20842" fill="#E8E029"/>
<circle cx="34.6207" cy="294.635" r="2.20842" fill="#E8E029"/>
<circle cx="67.011" cy="294.635" r="2.20842" fill="#E8E029"/>
<circle cx="99.4013" cy="294.635" r="2.20842" fill="#E8E029"/>
<circle cx="131.792" cy="294.635" r="2.20842" fill="#E8E029"/>
</svg>
